<svg width="57" height="57" viewBox="0 0 57 57" fill="none" xmlns="http://www.w3.org/2000/svg">
<path d="M46.3125 8.90625C46.3125 7.489 46.8755 6.1298 47.8776 5.12765C48.8798 4.1255 50.239 3.5625 51.6562 3.5625C53.0735 3.5625 54.4327 4.1255 55.4349 5.12765C56.437 6.1298 57 7.489 57 8.90625V48.0938C57 49.511 56.437 50.8702 55.4349 51.8724C54.4327 52.8745 53.0735 53.4375 51.6562 53.4375C50.239 53.4375 48.8798 52.8745 47.8776 51.8724C46.8755 50.8702 46.3125 49.511 46.3125 48.0938V8.90625ZM42.75 11.4855C35.3863 14.8699 26.5798 16.7616 17.8125 17.385V39.6043C19.1065 39.6773 20.3988 39.7782 21.6885 39.9071C29.0023 40.6339 36.0739 42.2869 42.75 45.4646V11.4855ZM14.25 39.4191V17.5774C11.8275 17.6736 9.26606 17.7306 7.0965 17.7662C5.20959 17.7923 3.40844 18.5586 2.08108 19.9C0.753717 21.2413 0.00635829 23.0504 0 24.9375L0 32.0625C0 36.0026 3.192 39.1733 7.10362 39.2196C7.69266 39.2269 8.28166 39.2364 8.87063 39.2481C10.6644 39.2839 12.4576 39.3409 14.25 39.4191ZM19.2019 43.2701C20.2172 43.3449 21.2289 43.4376 22.23 43.548L23.1313 49.5686C23.2294 50.0839 23.2125 50.6144 23.0818 51.1223C22.9512 51.6303 22.71 52.1031 22.3754 52.507C22.0409 52.911 21.6213 53.2361 21.1466 53.4591C20.6719 53.6822 20.1539 53.7976 19.6294 53.7973H17.6771C16.9847 53.7973 16.3072 53.5954 15.7277 53.2164C15.1481 52.8374 14.6916 52.2977 14.4139 51.6634L9.73275 42.8284C11.7429 42.8785 13.7523 42.9545 15.7605 43.0564C16.9254 43.1169 18.0761 43.1882 19.2019 43.2701Z" fill="#323232"/>
</svg>
