<svg width="50" height="50" viewBox="0 0 50 50" fill="none" xmlns="http://www.w3.org/2000/svg">
<circle cx="25" cy="25" r="25" fill="white"/>
<path d="M25 7C34.3891 7 42 15.0586 42 25C42 34.9414 34.3891 43 25 43C21.9957 43.0055 19.0442 42.1636 16.449 40.561L8.00683 43L10.3052 34.0576C8.79045 31.3089 7.99476 28.1824 8.00003 25C8.00003 15.0586 15.6109 7 25 7ZM19.2064 16.54L18.8664 16.5544C18.6466 16.5704 18.4318 16.6316 18.234 16.7344C18.0497 16.8451 17.8814 16.9833 17.7342 17.1448C17.5302 17.3482 17.4146 17.5246 17.2905 17.6956C16.6617 18.5612 16.3232 19.624 16.3283 20.716C16.3317 21.598 16.5493 22.4566 16.8893 23.2594C17.5846 24.883 18.7287 26.602 20.2383 28.195C20.6021 28.5784 20.9591 28.9636 21.3433 29.3218C23.2191 31.0703 25.4544 32.3313 27.8713 33.0046L28.8369 33.1612C29.1514 33.1792 29.4659 33.154 29.7821 33.1378C30.2771 33.1101 30.7604 32.9682 31.1982 32.722C31.4206 32.6002 31.6379 32.4681 31.8493 32.326C31.8493 32.326 31.9213 32.2744 32.0618 32.164C32.2913 31.984 32.4324 31.8562 32.6228 31.6456C32.7656 31.4896 32.8846 31.3084 32.9798 31.102C33.1124 30.8086 33.245 30.2488 33.2994 29.7826C33.3402 29.4262 33.3283 29.2318 33.3232 29.1112C33.3164 28.9186 33.1651 28.7188 33.0002 28.6342L32.0108 28.1644C32.0108 28.1644 30.5318 27.4822 29.6274 27.0466C29.5327 27.0029 29.4313 26.9779 29.3282 26.9728C29.2119 26.9599 29.0943 26.9736 28.9834 27.0131C28.8726 27.0525 28.771 27.1167 28.6856 27.2014C28.6771 27.1978 28.5632 27.3004 27.3341 28.8772C27.2636 28.9776 27.1664 29.0534 27.055 29.0951C26.9436 29.1368 26.8229 29.1424 26.7085 29.1112C26.5977 29.0799 26.4892 29.0402 26.3838 28.9924C26.173 28.8988 26.0999 28.8628 25.9554 28.798C24.9794 28.3478 24.076 27.7386 23.2779 26.9926C23.0637 26.7946 22.8648 26.5786 22.6608 26.3698C21.9921 25.6916 21.4092 24.9244 20.9268 24.0874L20.8265 23.9164C20.7556 23.8008 20.6974 23.677 20.6531 23.5474C20.5885 23.2828 20.7568 23.0704 20.7568 23.0704C20.7568 23.0704 21.1699 22.5916 21.362 22.3324C21.549 22.0804 21.7071 21.8356 21.8091 21.661C22.0097 21.319 22.0726 20.968 21.9672 20.6962C21.4912 19.465 20.9993 18.2404 20.4916 17.0224C20.3913 16.7812 20.0938 16.6084 19.8235 16.5742C19.7317 16.5622 19.6399 16.5526 19.5481 16.5454C19.3199 16.5315 19.091 16.5339 18.863 16.5526L19.2064 16.54Z" fill="black"/>
</svg>
