<svg width="34" height="36" viewBox="0 0 34 36" fill="none" xmlns="http://www.w3.org/2000/svg">
<path d="M17 0C26.3891 0 34 8.05859 34 18C34 27.9414 26.3891 36 17 36C13.9957 36.0055 11.0442 35.1636 8.44902 33.561L0.00682627 36L2.30522 27.0576C0.790455 24.3089 -0.00523876 21.1824 2.59567e-05 18C2.59567e-05 8.05859 7.61092 0 17 0ZM11.2064 9.53999L10.8664 9.55439C10.6466 9.57043 10.4318 9.63156 10.234 9.73439C10.0497 9.84511 9.88137 9.98333 9.73422 10.1448C9.53022 10.3482 9.41462 10.5246 9.29052 10.6956C8.66173 11.5612 8.32317 12.624 8.32832 13.716C8.33172 14.598 8.54932 15.4566 8.88932 16.2594C9.58462 17.883 10.7287 19.602 12.2383 21.195C12.6021 21.5784 12.9591 21.9636 13.3433 22.3218C15.2191 24.0703 17.4544 25.3313 19.8713 26.0046L20.8369 26.1612C21.1514 26.1792 21.4659 26.154 21.7821 26.1378C22.2771 26.1101 22.7604 25.9682 23.1982 25.722C23.4206 25.6002 23.6379 25.4681 23.8493 25.326C23.8493 25.326 23.9213 25.2744 24.0618 25.164C24.2913 24.984 24.4324 24.8562 24.6228 24.6456C24.7656 24.4896 24.8846 24.3084 24.9798 24.102C25.1124 23.8086 25.245 23.2488 25.2994 22.7826C25.3402 22.4262 25.3283 22.2318 25.3232 22.1112C25.3164 21.9186 25.1651 21.7188 25.0002 21.6342L24.0108 21.1644C24.0108 21.1644 22.5318 20.4822 21.6274 20.0466C21.5327 20.0029 21.4313 19.9779 21.3282 19.9728C21.2119 19.9599 21.0943 19.9736 20.9834 20.0131C20.8726 20.0525 20.771 20.1167 20.6856 20.2014C20.6771 20.1978 20.5632 20.3004 19.3341 21.8772C19.2636 21.9776 19.1664 22.0534 19.055 22.0951C18.9436 22.1368 18.8229 22.1424 18.7085 22.1112C18.5977 22.0799 18.4892 22.0402 18.3838 21.9924C18.173 21.8988 18.0999 21.8628 17.9554 21.798C16.9794 21.3478 16.076 20.7386 15.2779 19.9926C15.0637 19.7946 14.8648 19.5786 14.6608 19.3698C13.9921 18.6916 13.4092 17.9244 12.9268 17.0874L12.8265 16.9164C12.7556 16.8008 12.6974 16.677 12.6531 16.5474C12.5885 16.2828 12.7568 16.0704 12.7568 16.0704C12.7568 16.0704 13.1699 15.5916 13.362 15.3324C13.549 15.0804 13.7071 14.8356 13.8091 14.661C14.0097 14.319 14.0726 13.968 13.9672 13.6962C13.4912 12.465 12.9993 11.2404 12.4916 10.0224C12.3913 9.78119 12.0938 9.60839 11.8235 9.57419C11.7317 9.56219 11.6399 9.55259 11.5481 9.54539C11.3199 9.53153 11.091 9.53394 10.863 9.55259L11.2064 9.53999Z" fill="black"/>
</svg>
