<svg width="65" height="65" viewBox="0 0 65 65" fill="none" xmlns="http://www.w3.org/2000/svg">
<g clip-path="url(#clip0_2235_42)">
<path d="M55.7105 40.2458L59.5834 36.3729L55.7105 32.5L46.0417 42.1688L22.8313 18.9583L32.5001 9.28959L28.6272 5.41667L24.7542 9.28959L20.8813 5.41667L15.0855 11.2125L11.2126 7.33959L7.33966 11.2125L11.2126 15.0854L5.41675 20.8813L9.28966 24.7542L5.41675 28.6271L9.28966 32.5L18.9584 22.8313L42.1688 46.0417L32.5001 55.7104L36.373 59.5833L40.2459 55.7104L44.1188 59.5833L49.9147 53.7875L53.7876 57.6604L57.6605 53.7875L53.7876 49.9146L59.5834 44.1188L55.7105 40.2458Z" fill="#323232"/>
</g>
<defs>
<clipPath id="clip0_2235_42">
<rect width="65" height="65" fill="white"/>
</clipPath>
</defs>
</svg>
