<svg width="50" height="50" viewBox="0 0 50 50" fill="none" xmlns="http://www.w3.org/2000/svg">
<path d="M50 25C50 38.8071 38.8071 50 25 50C11.1929 50 0 38.8071 0 25C0 11.1929 11.1929 0 25 0C38.8071 0 50 11.1929 50 25Z" fill="white"/>
<path d="M26.8504 7C28.8753 7.0054 29.9031 7.0162 30.7904 7.0414L31.1396 7.054C31.5428 7.0684 31.9406 7.0864 32.4211 7.108C34.3362 7.198 35.643 7.50039 36.7895 7.94498C37.9775 8.40217 38.9782 9.02135 39.979 10.0203C40.8946 10.9198 41.6028 12.0083 42.0543 13.2098C42.4988 14.3564 42.8012 15.6632 42.8912 17.5801C42.9128 18.0589 42.9308 18.4567 42.9452 18.8617L42.956 19.2109C42.983 20.0965 42.9938 21.1243 42.9974 23.1492L42.9992 24.492V26.8499C43.0036 28.1628 42.9898 29.4757 42.9578 30.7882L42.947 31.1374C42.9326 31.5424 42.9146 31.9402 42.893 32.419C42.803 34.3359 42.497 35.6409 42.0543 36.7893C41.6028 37.9908 40.8946 39.0793 39.979 39.9788C39.0795 40.8944 37.991 41.6027 36.7895 42.0542C35.643 42.4987 34.3362 42.8011 32.4211 42.8911L31.1396 42.9451L30.7904 42.9559C29.9031 42.9811 28.8753 42.9937 26.8504 42.9973L25.5077 42.9991H23.1516C21.8381 43.0038 20.5247 42.99 19.2116 42.9577L18.8624 42.9469C18.4351 42.9307 18.008 42.9121 17.5809 42.8911C15.6658 42.8011 14.3591 42.4987 13.2107 42.0542C12.0099 41.6025 10.922 40.8942 10.0231 39.9788C9.10682 39.0795 8.39795 37.991 7.94598 36.7893C7.5014 35.6427 7.19901 34.3359 7.10902 32.419L7.05502 31.1374L7.04602 30.7882C7.01284 29.4757 6.99784 28.1628 7.00102 26.8499V23.1492C6.99604 21.8363 7.00924 20.5234 7.04062 19.2109L7.05322 18.8617C7.06762 18.4567 7.08562 18.0589 7.10722 17.5801C7.19721 15.6632 7.4996 14.3582 7.94418 13.2098C8.3972 12.0078 9.10732 10.9193 10.0249 10.0203C10.9233 9.10514 12.0105 8.3969 13.2107 7.94498C14.3591 7.50039 15.664 7.198 17.5809 7.108C18.0597 7.0864 18.4592 7.0684 18.8624 7.054L19.2116 7.0432C20.5241 7.01122 21.8369 6.99742 23.1498 7.0018L26.8504 7ZM25.0001 15.9998C22.6133 15.9998 20.3242 16.948 18.6365 18.6358C16.9487 20.3235 16.0006 22.6127 16.0006 24.9996C16.0006 27.3865 16.9487 29.6756 18.6365 31.3634C20.3242 33.0512 22.6133 33.9993 25.0001 33.9993C27.3869 33.9993 29.676 33.0512 31.3638 31.3634C33.0515 29.6756 33.9997 27.3865 33.9997 24.9996C33.9997 22.6127 33.0515 20.3235 31.3638 18.6358C29.676 16.948 27.3869 15.9998 25.0001 15.9998ZM25.0001 19.5997C25.7092 19.5996 26.4114 19.7391 27.0666 20.0104C27.7217 20.2817 28.3171 20.6793 28.8186 21.1806C29.3201 21.682 29.7179 22.2772 29.9894 22.9323C30.2608 23.5874 30.4006 24.2895 30.4007 24.9987C30.4009 25.7078 30.2613 26.41 29.9901 27.0652C29.7188 27.7204 29.3212 28.3157 28.8198 28.8172C28.3185 29.3187 27.7233 29.7166 27.0682 29.988C26.4132 30.2595 25.711 30.3993 25.0019 30.3994C23.5698 30.3994 22.1964 29.8305 21.1837 28.8179C20.1711 27.8052 19.6022 26.4317 19.6022 24.9996C19.6022 23.5674 20.1711 22.194 21.1837 21.1813C22.1964 20.1686 23.5698 19.5997 25.0019 19.5997M34.4514 13.2998C33.8547 13.2998 33.2825 13.5369 32.8605 13.9588C32.4386 14.3808 32.2016 14.9531 32.2016 15.5498C32.2016 16.1465 32.4386 16.7188 32.8605 17.1407C33.2825 17.5627 33.8547 17.7997 34.4514 17.7997C35.0481 17.7997 35.6204 17.5627 36.0423 17.1407C36.4643 16.7188 36.7013 16.1465 36.7013 15.5498C36.7013 14.9531 36.4643 14.3808 36.0423 13.9588C35.6204 13.5369 35.0481 13.2998 34.4514 13.2998Z" fill="black"/>
</svg>
