<svg width="64" height="64" viewBox="0 0 64 64" fill="none" xmlns="http://www.w3.org/2000/svg">
<g clip-path="url(#clip0_2236_64)">
<path d="M31.9733 5.33333C17.2533 5.33333 5.30664 17.28 5.30664 32C5.30664 46.72 17.2533 58.6667 31.9733 58.6667C46.6933 58.6667 58.64 46.72 58.64 32C58.64 17.28 46.6933 5.33333 31.9733 5.33333ZM41.6 22.24C44.4533 22.24 46.7466 24.5333 46.7466 27.3867C46.7466 30.24 44.4533 32.5333 41.6 32.5333C38.7466 32.5333 36.4533 30.24 36.4533 27.3867C36.4266 24.5333 38.7466 22.24 41.6 22.24ZM25.6 18.0267C29.0666 18.0267 31.8933 20.8533 31.8933 24.32C31.8933 27.7867 29.0666 30.6133 25.6 30.6133C22.1333 30.6133 19.3066 27.7867 19.3066 24.32C19.3066 20.8267 22.1066 18.0267 25.6 18.0267ZM25.6 42.3733V52.3733C19.2 50.3733 14.1333 45.44 11.8933 39.1467C14.6933 36.16 21.68 34.64 25.6 34.64C27.0133 34.64 28.8 34.8533 30.6666 35.2267C26.2933 37.5467 25.6 40.6133 25.6 42.3733ZM31.9733 53.3333C31.2533 53.3333 30.56 53.3067 29.8666 53.2267V42.3733C29.8666 38.5867 37.7066 36.6933 41.6 36.6933C44.4533 36.6933 49.3866 37.7333 51.84 39.76C48.72 47.68 41.0133 53.3333 31.9733 53.3333Z" fill="#323232"/>
</g>
<defs>
<clipPath id="clip0_2236_64">
<rect width="64" height="64" fill="white"/>
</clipPath>
</defs>
</svg>
